PathFileType	4	(X/Y/Z)	C:/Users/opensim2020/Desktop/walking_exp_matlab/subject01_walking12_straight_03.trc	
DataRate	CameraRate	NumFrames	NumMarkers	Units	OrigDataRate	OrigDataStartFrame	OrigNumFrames	
100.00	100.00	5	44	mm	100.00	1927	172	
Frame#	Time	LFHD			RFHD			LBHD			RBHD			C7			T10			CLAV			STRN			RBAK			LSHO			LUPA			LELB			LFRM			LWRA			LWRB			LFIN			RSHO			RUPA			RELB			RFRM			RWRA			RWRB			RFIN			LASI			RASI			LPSI			RPSI			LTHI			LKNE			LTIB			LANK			LHEE			LTOE			RTHI			RKNE			RTIB			RANK			RHEE			RTOE			*39			*40			*41			*42			*43			
		X1	Y1	Z1	X2	Y2	Z2	X3	Y3	Z3	X4	Y4	Z4	X5	Y5	Z5	X6	Y6	Z6	X7	Y7	Z7	X8	Y8	Z8	X9	Y9	Z9	X10	Y10	Z10	X11	Y11	Z11	X12	Y12	Z12	X13	Y13	Z13	X14	Y14	Z14	X15	Y15	Z15	X16	Y16	Z16	X17	Y17	Z17	X18	Y18	Z18	X19	Y19	Z19	X20	Y20	Z20	X21	Y21	Z21	X22	Y22	Z22	X23	Y23	Z23	X24	Y24	Z24	X25	Y25	Z25	X26	Y26	Z26	X27	Y27	Z27	X28	Y28	Z28	X29	Y29	Z29	X30	Y30	Z30	X31	Y31	Z31	X32	Y32	Z32	X33	Y33	Z33	X34	Y34	Z34	X35	Y35	Z35	X36	Y36	Z36	X37	Y37	Z37	X38	Y38	Z38	X39	Y39	Z39	X40	Y40	Z40	X41	Y41	Z41	X42	Y42	Z42	X43	Y43	Z43	X44	Y44	Z44	

151	1.500	-1111.77856	811.97430	1668.34656	-996.72339	815.80823	1672.97253	-1114.33081	692.78845	1632.23718	-992.93384	693.92877	1635.97754	-1071.83276	640.96088	1433.92151	-1055.82117	608.08258	1139.32642	-1058.60828	785.16907	1368.13367	-1058.14148	831.86017	1215.75110	-990.97418	582.02942	1240.07874	-1224.89221	736.29486	1392.15625	-1307.34814	716.05286	1206.29822	-1304.73096	697.63129	1056.49805	-1323.77698	731.07819	947.46051	-1296.49536	798.74579	827.14484	-1326.20215	746.63214	825.75275	-1333.38586	791.30499	754.97919	-911.46710	711.36877	1396.55603	-810.12817	647.03864	1199.51672	-804.48767	648.90546	1071.31177	-777.28833	696.14899	956.92596	-800.97119	797.69702	859.64948	-761.75934	755.96552	850.86768	-763.28876	808.85925	785.15009	-1150.82532	793.87231	938.61609	-934.11890	776.93207	931.43555	-1113.57141	604.05011	946.84979	-969.40479	594.96185	941.54797	-1209.48853	803.78271	611.37183	-1190.08887	815.15485	478.94107	-1202.70642	776.36975	292.12201	-1150.17969	758.03076	75.13790	-1102.11633	709.68396	46.14322	-1142.31885	907.05554	38.97155	-880.66339	744.68762	592.96588	-897.34869	752.64966	437.25479	-903.27289	597.88525	354.20123	-958.51532	436.75305	230.58325	-1020.03503	391.71054	246.86319	-951.69012	457.32211	87.65633	-1020.90118	808.28864	1706.89136	-3101.96094	1973.15088	1023.48956	-3140.70801	2012.46338	1022.01306						 
152	1.510	-1111.76782	823.63104	1669.21875	-996.75098	826.83319	1673.73645	-1114.97900	704.35254	1633.43079	-993.52789	704.91998	1637.12646	-1072.74646	651.75580	1435.27930	-1057.12061	618.04462	1140.71753	-1058.65845	795.82526	1369.04150	-1058.11951	841.91650	1216.43616	-992.44031	592.08868	1241.42407	-1225.04724	748.08203	1393.36169	-1308.11133	730.04492	1207.69604	-1306.52783	713.62280	1057.33740	-1325.55396	750.07117	949.28290	-1298.03479	820.70477	830.84369	-1327.87769	768.77185	827.98016	-1335.38306	815.43011	758.85522	-912.05499	721.17151	1397.55286	-811.53223	655.08270	1200.67297	-806.05988	656.01215	1072.67358	-778.54675	699.86078	957.16895	-801.66473	798.79047	857.04071	-762.55774	756.62616	849.46881	-764.15436	807.54962	781.93518	-1151.40308	803.62830	939.25372	-934.87531	786.42542	933.01550	-1114.13232	613.48315	947.97485	-970.11823	604.83002	942.64746	-1209.48669	809.91217	611.29327	-1190.02393	819.64313	478.51669	-1202.76636	779.07336	292.09348	-1150.17517	758.38989	75.46207	-1102.03003	709.86993	46.57137	-1142.32153	907.25494	38.88369	-881.01678	761.30029	595.37579	-897.99316	773.49579	439.93796	-904.69287	619.45764	356.59900	-960.19586	458.97992	232.27150	-1022.36383	413.21439	247.09883	-951.08600	481.98193	90.20859	-1020.72119	819.66290	1707.83447	-3101.90356	1973.04651	1023.50708	-3140.67114	2012.53162	1022.07977						 
153	1.520	-1111.55212	835.26709	1669.99609	-996.50720	837.97449	1674.44299	-1115.44861	715.90485	1634.60242	-994.00415	715.88861	1638.15674	-1073.64014	662.54077	1436.55969	-1058.30225	628.00464	1142.12817	-1058.64026	806.32800	1369.89587	-1058.16101	851.89923	1217.08887	-993.79779	602.00781	1242.71863	-1225.20886	759.56732	1394.51880	-1308.63037	743.73621	1209.06140	-1308.69019	729.59460	1058.49927	-1327.15808	768.96997	951.18335	-1299.45313	842.82465	834.95789	-1329.46631	791.07605	830.54181	-1337.11816	839.84308	763.09064	-912.48425	731.04138	1398.52783	-812.83813	662.98083	1201.81812	-807.33356	662.89246	1074.09778	-779.74640	703.59521	957.64874	-802.24963	799.66669	854.58594	-763.15125	756.90942	848.17133	-765.16071	805.93726	778.92957	-1152.04358	813.30573	939.90216	-935.51666	796.20685	934.63190	-1114.44995	623.13556	948.97186	-970.31421	614.72424	944.09210	-1209.38306	815.92932	611.22748	-1190.00916	823.97113	478.12308	-1202.65564	781.87079	292.07101	-1149.90613	758.34814	75.08417	-1101.82153	709.92706	46.49902	-1142.25488	907.34949	38.79832	-881.48566	777.97498	597.75586	-898.61945	794.25061	442.74506	-906.26239	641.03156	358.37924	-962.09698	481.35318	233.09358	-1024.13879	435.17532	246.00838	-951.02496	508.21069	91.84507	-1020.71729	830.93079	1708.61157	-3101.93604	1973.03308	1023.64825	-3140.78589	2012.50403	1022.15967						 
154	1.530	-1111.22900	846.89160	1670.71301	-996.20612	849.07007	1675.06982	-1115.79724	727.43585	1635.69568	-994.28003	726.88098	1639.16272	-1074.29211	673.30933	1437.69690	-1059.36377	637.94489	1143.37964	-1058.67322	816.82227	1370.68958	-1058.28101	861.90179	1217.69128	-994.91821	611.91425	1243.90393	-1225.33923	770.89795	1395.65076	-1309.43372	756.94543	1210.51514	-1310.43860	745.35150	1059.64795	-1328.70752	787.88159	953.27502	-1300.67883	864.97839	839.40955	-1330.87195	813.55627	833.39160	-1338.69873	864.36090	767.70746	-912.91083	740.87494	1399.37268	-813.97913	670.95319	1202.90979	-808.80670	669.51843	1075.45728	-780.69733	707.35120	958.31195	-802.90515	800.30890	852.33380	-763.74475	757.41119	847.22339	-765.92590	804.20697	776.22797	-1152.77368	822.86737	940.60712	-936.26465	805.96490	936.07886	-1114.55139	633.05457	949.86359	-970.28876	624.80109	945.78680	-1209.34253	822.04706	611.45898	-1189.92102	827.94928	477.70694	-1202.43872	784.73706	292.12964	-1149.72021	758.64148	75.31570	-1101.77661	709.96179	46.76727	-1142.22803	907.46484	38.72387	-881.68945	794.60608	600.27948	-898.90265	814.79010	445.69159	-907.58954	662.50964	359.93198	-963.67322	504.34314	232.27483	-1025.66626	457.24054	243.67270	-951.55286	536.20746	92.73335	-1020.07690	842.19489	1709.19983	-3101.94263	1973.20337	1023.42358	-3140.69751	2012.51440	1021.96484						 
155	1.540	-1110.77881	858.46399	1671.32288	-995.64545	860.16351	1675.62231	-1115.95020	738.90765	1636.72095	-994.45264	737.26147	1640.14331	-1074.84814	683.91681	1438.83142	-1060.34912	647.87054	1144.56055	-1058.66077	827.21094	1371.44641	-1058.41724	871.87103	1218.24487	-995.92920	621.81726	1244.97876	-1225.45923	781.98578	1396.78015	-1310.06055	769.85724	1211.88501	-1312.04700	760.79425	1060.66382	-1330.16675	806.67621	955.60760	-1301.77380	887.19305	844.27051	-1332.07568	836.10986	836.58063	-1339.97290	889.10583	772.82697	-913.14728	750.76685	1400.13831	-815.11792	678.84290	1203.95349	-810.53131	676.19952	1076.62109	-781.65601	711.11603	958.98083	-803.27325	801.03510	850.23480	-764.18158	757.98071	846.59027	-766.89624	802.56476	773.80865	-1153.59497	832.54858	941.42511	-937.07269	815.75812	937.46033	-1114.58093	642.53516	950.95721	-970.12244	634.88165	947.37311	-1209.22778	827.78333	611.33295	-1189.93188	831.82611	477.30679	-1202.32251	787.07617	292.29367	-1149.60010	758.86951	75.44225	-1101.62952	710.01105	47.07156	-1142.18604	907.56390	38.70525	-882.10529	811.05084	602.67151	-899.35742	834.81586	448.68661	-908.62628	683.79675	361.02872	-965.28839	527.96466	230.66408	-1027.14795	479.34961	239.81801	-952.25690	565.67664	92.84152	-1019.66296	853.49451	1709.75037	-3101.99219	1973.04919	1023.45844	-3140.82593	2012.46790	1022.05377						 
